<svg width="83" height="83" viewBox="0 0 83 83" fill="none" xmlns="http://www.w3.org/2000/svg">
<path d="M37.5 37.3594L75 -0.000164568L37.5 -0.000167847L37.5 37.3594Z" fill="#BBFF6D"/>
<path d="M74.9995 -0.000488281L37.4995 37.3591L74.9995 37.3591L74.9995 -0.000488281Z" fill="#BBFF6D"/>
<path d="M37.5 74.7192L75 37.3597L37.5 37.3597L37.5 74.7192Z" fill="#BBFF6D"/>
<path d="M37.5 -0.000488281L5.48622e-07 37.3591L37.5 37.3591L37.5 -0.000488281Z" fill="#BBFF6D"/>
<path d="M45.5 45.3594L83 7.99984L45.5 7.99983L45.5 45.3594Z" fill="#16348F"/>
<path d="M82.9995 7.99951L45.4995 45.3591L82.9995 45.3591L82.9995 7.99951Z" fill="#16348F"/>
<path d="M45.5 82.7192L83 45.3597L45.5 45.3597L45.5 82.7192Z" fill="#16348F"/>
<path d="M45.5 7.99951L8 45.3591L45.5 45.3591L45.5 7.99951Z" fill="#16348F"/>
</svg>
