<svg width="1100" height="124" viewBox="0 0 1100 124" fill="none" xmlns="http://www.w3.org/2000/svg">
<g clip-path="url(#clip0_2864_5849)">
<rect x="102.23" y="10.8853" width="102.23" height="102.23" rx="51.115" transform="rotate(90 102.23 10.8853)" fill="#BBFF6D"/>
<path d="M65.0698 11.438L20.6603 55.9589H81.8807L61.4739 35.714L41.3368 57.9296L20.6603 78.5328H82.1504L61.7436 58.1088L14.3675 105.138" stroke="#16348F" stroke-width="3.4363" stroke-miterlimit="3"/>
<path d="M65.0698 11.438L20.6603 55.9589H81.8807L61.4739 35.714L41.3368 57.9296L20.6603 78.5328H82.1504L61.7436 58.1088L14.3675 105.138" stroke="black" stroke-opacity="0.2" stroke-width="3.4363" stroke-miterlimit="3"/>
</g>
<path d="M402.162 113.114V10.8857H422.032V113.114H402.162Z" fill="white"/>
<path d="M368.148 113.114V46.0178L341.943 95.9803H330.856L304.651 46.0178V113.114H284.782V10.8857H306.091L336.328 69.0553L366.852 10.8857H388.018V113.114H368.148Z" fill="white"/>
<path d="M276.49 95.6923V113.114H205.506V10.8857H275.194V28.3078H225.375V52.9291H268.427V69.0553H225.375V95.6923H276.49Z" fill="white"/>
<path d="M197.214 95.6923V113.114H126.23V10.8857H195.918V28.3078H146.1V52.9291H189.151V69.0553H146.1V95.6923H197.214Z" fill="white"/>
<path d="M474.006 40.0301V46H449.683V10.9702H473.562V16.9401H456.492V25.3768H471.244V30.9027H456.492V40.0301H474.006ZM478.186 36.3298V20.147H484.797V34.899C484.797 36.8725 485.159 38.3691 485.882 39.3887C486.606 40.3755 487.675 40.8689 489.089 40.8689C489.944 40.8689 490.783 40.7044 491.605 40.3755C492.461 40.0137 493.234 39.4874 493.924 38.7967C494.648 38.106 495.256 37.2343 495.75 36.1818V20.147H502.361V38.5993C502.361 39.2901 502.476 39.7834 502.706 40.0795C502.97 40.3755 503.381 40.5564 503.94 40.6222V46C503.282 46.0987 502.723 46.1645 502.262 46.1974C501.835 46.2631 501.44 46.296 501.078 46.296C499.894 46.296 498.924 46.0329 498.167 45.5066C497.444 44.9475 497.016 44.1909 496.885 43.2371L496.737 41.1649C495.585 42.9082 494.105 44.2403 492.296 45.1613C490.487 46.0493 488.497 46.4934 486.326 46.4934C483.662 46.4934 481.639 45.6382 480.258 43.9278C478.876 42.1845 478.186 39.6519 478.186 36.3298ZM524.324 25.8702C522.318 25.8702 520.525 26.2649 518.947 27.0543C517.368 27.8108 516.233 28.9127 515.542 30.3599V46H508.931V20.147H515V25.6729C515.921 23.8967 517.088 22.4988 518.503 21.4791C519.917 20.4595 521.413 19.9003 522.992 19.8017C523.354 19.8017 523.634 19.8017 523.831 19.8017C524.028 19.8017 524.193 19.8181 524.324 19.851V25.8702ZM539.613 46.4934C537.508 46.4934 535.617 46.148 533.939 45.4573C532.262 44.7337 530.831 43.7469 529.647 42.497C528.496 41.2471 527.608 39.8163 526.983 38.2046C526.358 36.5929 526.045 34.899 526.045 33.1229C526.045 31.3138 526.358 29.6034 526.983 27.9917C527.608 26.38 528.496 24.9492 529.647 23.6993C530.831 22.4495 532.262 21.4791 533.939 20.7884C535.617 20.0648 537.508 19.703 539.613 19.703C541.718 19.703 543.593 20.0648 545.238 20.7884C546.915 21.4791 548.346 22.4495 549.53 23.6993C550.714 24.9492 551.602 26.38 552.194 27.9917C552.819 29.6034 553.132 31.3138 553.132 33.1229C553.132 34.899 552.819 36.5929 552.194 38.2046C551.602 39.8163 550.714 41.2471 549.53 42.497C548.379 43.7469 546.965 44.7337 545.287 45.4573C543.61 46.148 541.718 46.4934 539.613 46.4934ZM532.854 33.1229C532.854 34.6359 533.15 35.9844 533.742 37.1685C534.334 38.3198 535.14 39.2243 536.16 39.8821C537.179 40.54 538.331 40.8689 539.613 40.8689C540.863 40.8689 541.998 40.54 543.018 39.8821C544.037 39.1914 544.843 38.2704 545.435 37.1192C546.06 35.9351 546.373 34.5865 546.373 33.0735C546.373 31.5934 546.06 30.2613 545.435 29.0772C544.843 27.893 544.037 26.9721 543.018 26.3142C541.998 25.6564 540.863 25.3275 539.613 25.3275C538.331 25.3275 537.179 25.6729 536.16 26.3636C535.14 27.0214 534.334 27.9424 533.742 29.1265C533.15 30.2777 532.854 31.6098 532.854 33.1229ZM573.086 46.4934C571.08 46.4934 569.304 46.0493 567.758 45.1613C566.245 44.2403 565.061 43.0068 564.205 41.4609V56.5089H557.594V20.147H563.367V24.5874C564.354 23.0744 565.603 21.8903 567.116 21.0351C568.629 20.147 570.356 19.703 572.297 19.703C574.04 19.703 575.635 20.0483 577.083 20.7391C578.563 21.4298 579.846 22.4001 580.931 23.65C582.016 24.867 582.855 26.2814 583.447 27.893C584.072 29.4719 584.385 31.1822 584.385 33.0242C584.385 35.524 583.891 37.7935 582.905 39.8328C581.951 41.8721 580.619 43.5002 578.908 44.7172C577.231 45.9013 575.29 46.4934 573.086 46.4934ZM570.866 40.8689C571.886 40.8689 572.807 40.6551 573.629 40.2275C574.451 39.7999 575.158 39.2243 575.751 38.5007C576.375 37.7442 576.836 36.9054 577.132 35.9844C577.461 35.0306 577.625 34.0438 577.625 33.0242C577.625 31.9387 577.444 30.9355 577.083 30.0146C576.754 29.0936 576.26 28.2878 575.603 27.597C574.945 26.8734 574.172 26.3142 573.284 25.9195C572.428 25.5248 571.491 25.3275 570.471 25.3275C569.846 25.3275 569.205 25.4426 568.547 25.6729C567.922 25.8702 567.314 26.1662 566.722 26.5609C566.13 26.9556 565.603 27.4161 565.143 27.9424C564.715 28.4687 564.403 29.0443 564.205 29.6692V35.7378C564.6 36.6916 565.126 37.5632 565.784 38.3527C566.475 39.1421 567.264 39.767 568.153 40.2275C569.041 40.6551 569.945 40.8689 570.866 40.8689ZM600.853 46.4934C598.781 46.4934 596.906 46.148 595.229 45.4573C593.551 44.7337 592.12 43.7634 590.936 42.5464C589.752 41.2965 588.831 39.8821 588.173 38.3033C587.548 36.6916 587.236 34.9977 587.236 33.2215C587.236 30.7546 587.779 28.5015 588.864 26.4623C589.982 24.423 591.561 22.7948 593.6 21.5778C595.673 20.3279 598.107 19.703 600.902 19.703C603.731 19.703 606.149 20.3279 608.155 21.5778C610.161 22.7948 611.691 24.423 612.743 26.4623C613.829 28.4687 614.372 30.6395 614.372 32.9748C614.372 33.3695 614.355 33.7807 614.322 34.2083C614.289 34.603 614.256 34.9319 614.224 35.195H594.242C594.373 36.5107 594.752 37.6619 595.377 38.6487C596.034 39.6354 596.857 40.3919 597.843 40.9182C598.863 41.4116 599.949 41.6583 601.1 41.6583C602.415 41.6583 603.649 41.3458 604.8 40.7209C605.984 40.063 606.79 39.2078 607.218 38.1553L612.891 39.7341C612.266 41.0498 611.362 42.2174 610.178 43.2371C609.027 44.2567 607.662 45.0626 606.083 45.6546C604.504 46.2138 602.761 46.4934 600.853 46.4934ZM594.094 31.0013H607.612C607.481 29.6857 607.102 28.5509 606.478 27.597C605.885 26.6103 605.096 25.8538 604.109 25.3275C603.123 24.7683 602.021 24.4887 600.804 24.4887C599.62 24.4887 598.534 24.7683 597.547 25.3275C596.594 25.8538 595.804 26.6103 595.179 27.597C594.587 28.5509 594.225 29.6857 594.094 31.0013ZM616.623 38.3527C616.623 36.6752 617.083 35.2115 618.004 33.9616C618.958 32.6788 620.274 31.6921 621.951 31.0013C623.629 30.3106 625.553 29.9652 627.724 29.9652C628.809 29.9652 629.911 30.0475 631.03 30.2119C632.148 30.3764 633.118 30.6395 633.941 31.0013V29.6199C633.941 27.9753 633.447 26.7089 632.46 25.8209C631.507 24.9328 630.076 24.4887 628.168 24.4887C626.754 24.4887 625.405 24.7354 624.122 25.2288C622.84 25.7222 621.491 26.4458 620.077 27.3997L617.955 23.058C619.665 21.9396 621.409 21.1009 623.185 20.5417C624.994 19.9826 626.885 19.703 628.859 19.703C632.543 19.703 635.404 20.624 637.444 22.4659C639.516 24.3078 640.552 26.9392 640.552 30.3599V38.5993C640.552 39.2901 640.667 39.7834 640.897 40.0795C641.16 40.3755 641.571 40.5564 642.131 40.6222V46C641.539 46.0987 640.996 46.1809 640.502 46.2467C640.042 46.3125 639.647 46.3454 639.318 46.3454C638.003 46.3454 636.999 46.0493 636.309 45.4573C635.651 44.8652 635.24 44.1416 635.075 43.2864L634.927 41.9543C633.809 43.4015 632.411 44.5199 630.734 45.3093C629.056 46.0987 627.346 46.4934 625.602 46.4934C623.892 46.4934 622.346 46.148 620.965 45.4573C619.616 44.7337 618.547 43.7634 617.758 42.5464C617.001 41.2965 616.623 39.8986 616.623 38.3527ZM632.707 39.6848C633.069 39.2901 633.365 38.8954 633.595 38.5007C633.825 38.106 633.941 37.7442 633.941 37.4152V34.8003C633.151 34.4714 632.296 34.2247 631.375 34.0603C630.454 33.8629 629.582 33.7642 628.76 33.7642C627.05 33.7642 625.635 34.1425 624.517 34.899C623.432 35.6226 622.889 36.5929 622.889 37.8099C622.889 38.4678 623.07 39.0927 623.432 39.6848C623.793 40.2768 624.32 40.7538 625.01 41.1156C625.701 41.4774 626.523 41.6583 627.477 41.6583C628.464 41.6583 629.434 41.4774 630.388 41.1156C631.342 40.7209 632.115 40.2439 632.707 39.6848ZM670.757 46H664.146V31.4947C664.146 29.4225 663.784 27.9095 663.061 26.9556C662.337 26.0018 661.334 25.5248 660.051 25.5248C659.163 25.5248 658.258 25.7551 657.337 26.2156C656.449 26.6761 655.643 27.3174 654.92 28.1397C654.196 28.9291 653.67 29.8501 653.341 30.9027V46H646.73V20.147H652.7V24.9328C653.358 23.8145 654.196 22.877 655.216 22.1205C656.236 21.3311 657.403 20.7391 658.719 20.3444C660.067 19.9168 661.482 19.703 662.962 19.703C664.574 19.703 665.889 19.999 666.909 20.5911C667.961 21.1502 668.751 21.9232 669.277 22.9099C669.836 23.8638 670.215 24.9492 670.412 26.1662C670.642 27.3832 670.757 28.6167 670.757 29.8666V46ZM713.323 40.0301V46H689V10.9702H712.879V16.9401H695.809V25.3768H710.561V30.9027H695.809V40.0301H713.323ZM741.873 46H735.262V31.4947C735.262 29.4225 734.9 27.9095 734.176 26.9556C733.453 26.0018 732.45 25.5248 731.167 25.5248C730.279 25.5248 729.374 25.7551 728.453 26.2156C727.565 26.6761 726.759 27.3174 726.036 28.1397C725.312 28.9291 724.786 29.8501 724.457 30.9027V46H717.846V20.147H723.815V24.9328C724.473 23.8145 725.312 22.877 726.332 22.1205C727.351 21.3311 728.519 20.7391 729.835 20.3444C731.183 19.9168 732.598 19.703 734.078 19.703C735.689 19.703 737.005 19.999 738.025 20.5911C739.077 21.1502 739.867 21.9232 740.393 22.9099C740.952 23.8638 741.33 24.9492 741.528 26.1662C741.758 27.3832 741.873 28.6167 741.873 29.8666V46ZM762.969 44.6679C762.41 44.8981 761.736 45.1613 760.946 45.4573C760.157 45.7533 759.302 45.9836 758.381 46.148C757.493 46.3454 756.588 46.444 755.667 46.444C754.45 46.444 753.332 46.2302 752.312 45.8026C751.293 45.3751 750.47 44.7008 749.845 43.7798C749.253 42.8259 748.957 41.5925 748.957 40.0795V25.2288H745.553V20.147H748.957V11.7596H755.568V20.147H760.996V25.2288H755.568V37.8593C755.601 38.7474 755.848 39.3887 756.309 39.7834C756.769 40.1781 757.345 40.3755 758.035 40.3755C758.726 40.3755 759.4 40.2604 760.058 40.0301C760.716 39.7999 761.242 39.6025 761.637 39.4381L762.969 44.6679ZM781.806 25.8702C779.799 25.8702 778.007 26.2649 776.428 27.0543C774.849 27.8108 773.714 28.9127 773.024 30.3599V46H766.412V20.147H772.481V25.6729C773.402 23.8967 774.57 22.4988 775.984 21.4791C777.398 20.4595 778.895 19.9003 780.474 19.8017C780.835 19.8017 781.115 19.8017 781.312 19.8017C781.51 19.8017 781.674 19.8181 781.806 19.851V25.8702ZM797.144 46.4934C795.072 46.4934 793.197 46.148 791.519 45.4573C789.842 44.7337 788.411 43.7634 787.227 42.5464C786.043 41.2965 785.122 39.8821 784.464 38.3033C783.839 36.6916 783.527 34.9977 783.527 33.2215C783.527 30.7546 784.069 28.5015 785.155 26.4623C786.273 24.423 787.852 22.7948 789.891 21.5778C791.964 20.3279 794.398 19.703 797.193 19.703C800.022 19.703 802.44 20.3279 804.446 21.5778C806.452 22.7948 807.982 24.423 809.034 26.4623C810.12 28.4687 810.663 30.6395 810.663 32.9748C810.663 33.3695 810.646 33.7807 810.613 34.2083C810.58 34.603 810.547 34.9319 810.515 35.195H790.533C790.664 36.5107 791.043 37.6619 791.668 38.6487C792.325 39.6354 793.148 40.3919 794.134 40.9182C795.154 41.4116 796.239 41.6583 797.391 41.6583C798.706 41.6583 799.94 41.3458 801.091 40.7209C802.275 40.063 803.081 39.2078 803.509 38.1553L809.182 39.7341C808.557 41.0498 807.653 42.2174 806.469 43.2371C805.318 44.2567 803.953 45.0626 802.374 45.6546C800.795 46.2138 799.052 46.4934 797.144 46.4934ZM790.385 31.0013H803.903C803.772 29.6857 803.393 28.5509 802.768 27.597C802.176 26.6103 801.387 25.8538 800.4 25.3275C799.414 24.7683 798.312 24.4887 797.095 24.4887C795.911 24.4887 794.825 24.7683 793.838 25.3275C792.885 25.8538 792.095 26.6103 791.47 27.597C790.878 28.5509 790.516 29.6857 790.385 31.0013ZM830.182 46.4934C828.176 46.4934 826.4 46.0493 824.854 45.1613C823.341 44.2403 822.157 43.0068 821.301 41.4609V56.5089H814.69V20.147H820.463V24.5874C821.449 23.0744 822.699 21.8903 824.212 21.0351C825.725 20.147 827.452 19.703 829.393 19.703C831.136 19.703 832.731 20.0483 834.179 20.7391C835.659 21.4298 836.941 22.4001 838.027 23.65C839.112 24.867 839.951 26.2814 840.543 27.893C841.168 29.4719 841.481 31.1822 841.481 33.0242C841.481 35.524 840.987 37.7935 840 39.8328C839.047 41.8721 837.714 43.5002 836.004 44.7172C834.327 45.9013 832.386 46.4934 830.182 46.4934ZM827.962 40.8689C828.982 40.8689 829.903 40.6551 830.725 40.2275C831.547 39.7999 832.254 39.2243 832.846 38.5007C833.471 37.7442 833.932 36.9054 834.228 35.9844C834.557 35.0306 834.721 34.0438 834.721 33.0242C834.721 31.9387 834.54 30.9355 834.179 30.0146C833.85 29.0936 833.356 28.2878 832.698 27.597C832.041 26.8734 831.268 26.3142 830.38 25.9195C829.524 25.5248 828.587 25.3275 827.567 25.3275C826.942 25.3275 826.301 25.4426 825.643 25.6729C825.018 25.8702 824.41 26.1662 823.818 26.5609C823.226 26.9556 822.699 27.4161 822.239 27.9424C821.811 28.4687 821.499 29.0443 821.301 29.6692V35.7378C821.696 36.6916 822.222 37.5632 822.88 38.3527C823.571 39.1421 824.36 39.767 825.248 40.2275C826.136 40.6551 827.041 40.8689 827.962 40.8689ZM861.353 25.8702C859.347 25.8702 857.554 26.2649 855.975 27.0543C854.397 27.8108 853.262 28.9127 852.571 30.3599V46H845.96V20.147H852.028V25.6729C852.949 23.8967 854.117 22.4988 855.531 21.4791C856.946 20.4595 858.442 19.9003 860.021 19.8017C860.383 19.8017 860.662 19.8017 860.86 19.8017C861.057 19.8017 861.222 19.8181 861.353 19.851V25.8702ZM876.691 46.4934C874.619 46.4934 872.744 46.148 871.067 45.4573C869.389 44.7337 867.959 43.7634 866.775 42.5464C865.59 41.2965 864.669 39.8821 864.012 38.3033C863.387 36.6916 863.074 34.9977 863.074 33.2215C863.074 30.7546 863.617 28.5015 864.702 26.4623C865.821 24.423 867.4 22.7948 869.439 21.5778C871.511 20.3279 873.945 19.703 876.741 19.703C879.569 19.703 881.987 20.3279 883.993 21.5778C886 22.7948 887.529 24.423 888.582 26.4623C889.667 28.4687 890.21 30.6395 890.21 32.9748C890.21 33.3695 890.194 33.7807 890.161 34.2083C890.128 34.603 890.095 34.9319 890.062 35.195H870.08C870.212 36.5107 870.59 37.6619 871.215 38.6487C871.873 39.6354 872.695 40.3919 873.682 40.9182C874.701 41.4116 875.787 41.6583 876.938 41.6583C878.254 41.6583 879.487 41.3458 880.638 40.7209C881.823 40.063 882.628 39.2078 883.056 38.1553L888.73 39.7341C888.105 41.0498 887.2 42.2174 886.016 43.2371C884.865 44.2567 883.5 45.0626 881.921 45.6546C880.342 46.2138 878.599 46.4934 876.691 46.4934ZM869.932 31.0013H883.451C883.319 29.6857 882.941 28.5509 882.316 27.597C881.724 26.6103 880.934 25.8538 879.948 25.3275C878.961 24.7683 877.859 24.4887 876.642 24.4887C875.458 24.4887 874.373 24.7683 873.386 25.3275C872.432 25.8538 871.643 26.6103 871.018 27.597C870.426 28.5509 870.064 29.6857 869.932 31.0013ZM918.265 46H911.654V31.4947C911.654 29.4225 911.292 27.9095 910.568 26.9556C909.845 26.0018 908.842 25.5248 907.559 25.5248C906.671 25.5248 905.766 25.7551 904.845 26.2156C903.957 26.6761 903.151 27.3174 902.428 28.1397C901.704 28.9291 901.178 29.8501 900.849 30.9027V46H894.238V20.147H900.207V24.9328C900.865 23.8145 901.704 22.877 902.724 22.1205C903.743 21.3311 904.911 20.7391 906.227 20.3444C907.575 19.9168 908.99 19.703 910.47 19.703C912.081 19.703 913.397 19.999 914.417 20.5911C915.469 21.1502 916.259 21.9232 916.785 22.9099C917.344 23.8638 917.722 24.9492 917.92 26.1662C918.15 27.3832 918.265 28.6167 918.265 29.8666V46ZM936.003 46.4934C933.931 46.4934 932.056 46.148 930.378 45.4573C928.701 44.7337 927.27 43.7634 926.086 42.5464C924.902 41.2965 923.981 39.8821 923.323 38.3033C922.698 36.6916 922.386 34.9977 922.386 33.2215C922.386 30.7546 922.928 28.5015 924.014 26.4623C925.132 24.423 926.711 22.7948 928.75 21.5778C930.822 20.3279 933.256 19.703 936.052 19.703C938.881 19.703 941.298 20.3279 943.305 21.5778C945.311 22.7948 946.841 24.423 947.893 26.4623C948.979 28.4687 949.521 30.6395 949.521 32.9748C949.521 33.3695 949.505 33.7807 949.472 34.2083C949.439 34.603 949.406 34.9319 949.373 35.195H929.392C929.523 36.5107 929.901 37.6619 930.526 38.6487C931.184 39.6354 932.006 40.3919 932.993 40.9182C934.013 41.4116 935.098 41.6583 936.249 41.6583C937.565 41.6583 938.799 41.3458 939.95 40.7209C941.134 40.063 941.94 39.2078 942.367 38.1553L948.041 39.7341C947.416 41.0498 946.512 42.2174 945.328 43.2371C944.176 44.2567 942.811 45.0626 941.233 45.6546C939.654 46.2138 937.91 46.4934 936.003 46.4934ZM929.243 31.0013H942.762C942.63 29.6857 942.252 28.5509 941.627 27.597C941.035 26.6103 940.246 25.8538 939.259 25.3275C938.272 24.7683 937.17 24.4887 935.953 24.4887C934.769 24.4887 933.684 24.7683 932.697 25.3275C931.743 25.8538 930.954 26.6103 930.329 27.597C929.737 28.5509 929.375 29.6857 929.243 31.0013ZM953.302 36.3298V20.147H959.913V34.899C959.913 36.8725 960.275 38.3691 960.999 39.3887C961.722 40.3755 962.791 40.8689 964.206 40.8689C965.061 40.8689 965.9 40.7044 966.722 40.3755C967.577 40.0137 968.35 39.4874 969.041 38.7967C969.765 38.106 970.373 37.2343 970.866 36.1818V20.147H977.478V38.5993C977.478 39.2901 977.593 39.7834 977.823 40.0795C978.086 40.3755 978.497 40.5564 979.056 40.6222V46C978.399 46.0987 977.839 46.1645 977.379 46.1974C976.951 46.2631 976.557 46.296 976.195 46.296C975.011 46.296 974.04 46.0329 973.284 45.5066C972.56 44.9475 972.133 44.1909 972.001 43.2371L971.853 41.1649C970.702 42.9082 969.222 44.2403 967.413 45.1613C965.604 46.0493 963.614 46.4934 961.443 46.4934C958.779 46.4934 956.756 45.6382 955.374 43.9278C953.993 42.1845 953.302 39.6519 953.302 36.3298ZM999.441 25.8702C997.435 25.8702 995.642 26.2649 994.063 27.0543C992.484 27.8108 991.35 28.9127 990.659 30.3599V46H984.048V20.147H990.116V25.6729C991.037 23.8967 992.205 22.4988 993.619 21.4791C995.034 20.4595 996.53 19.9003 998.109 19.8017C998.471 19.8017 998.75 19.8017 998.948 19.8017C999.145 19.8017 999.309 19.8181 999.441 19.851V25.8702ZM1012.65 46.4934C1010.45 46.4934 1008.34 46.1316 1006.33 45.4079C1004.33 44.6843 1002.6 43.6153 1001.15 42.201L1003.52 37.9086C1005.07 39.1585 1006.58 40.0795 1008.06 40.6715C1009.57 41.2636 1011.02 41.5596 1012.4 41.5596C1013.69 41.5596 1014.71 41.3294 1015.46 40.8689C1016.25 40.4084 1016.65 39.7177 1016.65 38.7967C1016.65 38.1717 1016.43 37.6948 1016 37.3659C1015.58 37.0041 1014.95 36.6916 1014.13 36.4285C1013.34 36.1653 1012.37 35.8693 1011.22 35.5404C1009.31 34.9155 1007.72 34.307 1006.43 33.7149C1005.15 33.1228 1004.18 32.3828 1003.52 31.4947C1002.9 30.5737 1002.58 29.4061 1002.58 27.9917C1002.58 26.2813 1003.01 24.8177 1003.87 23.6007C1004.76 22.3508 1005.97 21.3805 1007.52 20.6897C1009.1 19.999 1010.94 19.6536 1013.04 19.6536C1014.89 19.6536 1016.63 19.9497 1018.27 20.5417C1019.92 21.1009 1021.42 22.0219 1022.76 23.3046L1020.1 27.4983C1018.78 26.4787 1017.53 25.7386 1016.35 25.2781C1015.17 24.7848 1013.97 24.5381 1012.75 24.5381C1012.06 24.5381 1011.4 24.6203 1010.77 24.7848C1010.18 24.9492 1009.69 25.2288 1009.29 25.6235C1008.93 25.9853 1008.75 26.5116 1008.75 27.2023C1008.75 27.8273 1008.92 28.3206 1009.25 28.6825C1009.61 29.0114 1010.13 29.3074 1010.82 29.5705C1011.55 29.8337 1012.42 30.1297 1013.44 30.4586C1015.51 31.0507 1017.25 31.6592 1018.67 32.2841C1020.12 32.9091 1021.2 33.682 1021.93 34.603C1022.65 35.4911 1023.01 36.7245 1023.01 38.3033C1023.01 40.8689 1022.07 42.8753 1020.2 44.3225C1018.32 45.7698 1015.81 46.4934 1012.65 46.4934ZM1051.53 46H1044.92V31.4947C1044.92 29.4883 1044.53 27.9917 1043.74 27.005C1042.98 26.0182 1041.93 25.5248 1040.58 25.5248C1039.79 25.5248 1038.95 25.7551 1038.07 26.2156C1037.18 26.6761 1036.37 27.3174 1035.65 28.1397C1034.96 28.9291 1034.45 29.8501 1034.12 30.9027V46H1027.51V9.98345H1034.12V24.9328C1035.07 23.2882 1036.37 22.0054 1038.02 21.0844C1039.66 20.1635 1041.45 19.703 1043.39 19.703C1045.07 19.703 1046.44 19.999 1047.49 20.5911C1048.54 21.1502 1049.36 21.9232 1049.96 22.9099C1050.55 23.8638 1050.96 24.9492 1051.19 26.1662C1051.42 27.3503 1051.53 28.5838 1051.53 29.8666V46ZM1057.28 46V20.147H1063.89V46H1057.28ZM1057.28 16.5454V9.98345H1063.89V16.5454H1057.28ZM1085.35 46.4934C1083.34 46.4934 1081.57 46.0493 1080.02 45.1613C1078.51 44.2403 1077.33 43.0068 1076.47 41.4609V56.5089H1069.86V20.147H1075.63V24.5874C1076.62 23.0744 1077.87 21.8903 1079.38 21.0351C1080.89 20.147 1082.62 19.703 1084.56 19.703C1086.3 19.703 1087.9 20.0483 1089.35 20.7391C1090.83 21.4298 1092.11 22.4001 1093.2 23.65C1094.28 24.867 1095.12 26.2814 1095.71 27.893C1096.34 29.4719 1096.65 31.1822 1096.65 33.0242C1096.65 35.524 1096.16 37.7935 1095.17 39.8328C1094.22 41.8721 1092.88 43.5002 1091.17 44.7172C1089.5 45.9013 1087.55 46.4934 1085.35 46.4934ZM1083.13 40.8689C1084.15 40.8689 1085.07 40.6551 1085.89 40.2275C1086.72 39.7999 1087.42 39.2243 1088.02 38.5007C1088.64 37.7442 1089.1 36.9054 1089.4 35.9844C1089.73 35.0306 1089.89 34.0438 1089.89 33.0242C1089.89 31.9387 1089.71 30.9355 1089.35 30.0146C1089.02 29.0936 1088.52 28.2878 1087.87 27.597C1087.21 26.8734 1086.44 26.3142 1085.55 25.9195C1084.69 25.5248 1083.76 25.3275 1082.74 25.3275C1082.11 25.3275 1081.47 25.4426 1080.81 25.6729C1080.19 25.8702 1079.58 26.1662 1078.99 26.5609C1078.39 26.9556 1077.87 27.4161 1077.41 27.9424C1076.98 28.4687 1076.67 29.0443 1076.47 29.6692V35.7378C1076.86 36.6916 1077.39 37.5632 1078.05 38.3527C1078.74 39.1421 1079.53 39.767 1080.42 40.2275C1081.31 40.6551 1082.21 40.8689 1083.13 40.8689Z" fill="white"/>
<path d="M459.205 76.9702H466.112L478.99 112H471.984L468.727 103.267H456.492L453.285 112H446.279L459.205 76.9702ZM467.494 98.4815L462.659 84.0255L457.626 98.4815H467.494ZM506.218 112H499.607V97.4947C499.607 95.4225 499.245 93.9095 498.521 92.9556C497.798 92.0018 496.794 91.5248 495.512 91.5248C494.623 91.5248 493.719 91.7551 492.798 92.2156C491.91 92.6761 491.104 93.3174 490.38 94.1397C489.657 94.9291 489.131 95.8501 488.802 96.9027V112H482.19V86.147H488.16V90.9328C488.818 89.8145 489.657 88.877 490.676 88.1205C491.696 87.3311 492.864 86.7391 494.179 86.3444C495.528 85.9168 496.942 85.703 498.422 85.703C500.034 85.703 501.35 85.999 502.37 86.5911C503.422 87.1502 504.211 87.9232 504.738 88.9099C505.297 89.8638 505.675 90.9492 505.872 92.1662C506.103 93.3832 506.218 94.6167 506.218 95.8666V112ZM510.388 99.0735C510.388 96.5737 510.881 94.3206 511.868 92.3142C512.855 90.2749 514.22 88.6632 515.963 87.4791C517.706 86.295 519.696 85.703 521.933 85.703C523.84 85.703 525.551 86.1799 527.064 87.1338C528.61 88.0548 529.81 89.2389 530.665 90.6861V75.9835H537.277V104.599C537.277 105.29 537.392 105.783 537.622 106.079C537.852 106.375 538.247 106.556 538.806 106.622V112C537.655 112.23 536.718 112.345 535.994 112.345C534.81 112.345 533.823 112.049 533.034 111.457C532.277 110.865 531.85 110.092 531.751 109.138L531.652 107.51C530.698 109.122 529.399 110.355 527.755 111.211C526.143 112.066 524.449 112.493 522.673 112.493C520.897 112.493 519.252 112.148 517.739 111.457C516.259 110.767 514.96 109.813 513.841 108.596C512.756 107.379 511.901 105.964 511.276 104.353C510.684 102.708 510.388 100.948 510.388 99.0735ZM530.665 102.527V96.3599C530.337 95.4061 529.81 94.5509 529.087 93.7944C528.363 93.0379 527.557 92.4458 526.669 92.0182C525.781 91.5577 524.893 91.3275 524.005 91.3275C522.985 91.3275 522.064 91.5413 521.242 91.9689C520.42 92.3965 519.696 92.9721 519.071 93.6957C518.479 94.4193 518.019 95.2581 517.69 96.2119C517.394 97.1658 517.246 98.169 517.246 99.2215C517.246 100.274 517.41 101.277 517.739 102.231C518.101 103.152 518.611 103.958 519.268 104.649C519.926 105.339 520.683 105.882 521.538 106.277C522.426 106.672 523.38 106.869 524.4 106.869C525.025 106.869 525.649 106.77 526.274 106.573C526.932 106.343 527.541 106.047 528.1 105.685C528.692 105.29 529.202 104.83 529.629 104.303C530.09 103.744 530.435 103.152 530.665 102.527ZM584.827 112V89.0086L575.847 106.129H572.048L563.069 89.0086V112H556.26V76.9702H563.562L573.923 96.9027L584.383 76.9702H591.635V112H584.827ZM596.242 104.353C596.242 102.675 596.703 101.211 597.624 99.9616C598.578 98.6788 599.893 97.6921 601.571 97.0013C603.248 96.3106 605.172 95.9652 607.343 95.9652C608.429 95.9652 609.531 96.0475 610.649 96.2119C611.767 96.3764 612.738 96.6395 613.56 97.0013V95.6199C613.56 93.9753 613.066 92.7089 612.08 91.8209C611.126 90.9328 609.695 90.4887 607.787 90.4887C606.373 90.4887 605.024 90.7354 603.742 91.2288C602.459 91.7222 601.11 92.4458 599.696 93.3997L597.574 89.058C599.285 87.9396 601.028 87.1009 602.804 86.5417C604.613 85.9826 606.505 85.703 608.478 85.703C612.162 85.703 615.023 86.624 617.063 88.4659C619.135 90.3078 620.171 92.9392 620.171 96.3599V104.599C620.171 105.29 620.286 105.783 620.516 106.079C620.78 106.375 621.191 106.556 621.75 106.622V112C621.158 112.099 620.615 112.181 620.122 112.247C619.661 112.312 619.267 112.345 618.938 112.345C617.622 112.345 616.619 112.049 615.928 111.457C615.27 110.865 614.859 110.142 614.695 109.286L614.547 107.954C613.428 109.402 612.03 110.52 610.353 111.309C608.675 112.099 606.965 112.493 605.222 112.493C603.511 112.493 601.965 112.148 600.584 111.457C599.235 110.734 598.166 109.763 597.377 108.546C596.621 107.296 596.242 105.899 596.242 104.353ZM612.326 105.685C612.688 105.29 612.984 104.895 613.214 104.501C613.445 104.106 613.56 103.744 613.56 103.415V100.8C612.77 100.471 611.915 100.225 610.994 100.06C610.073 99.8629 609.202 99.7642 608.379 99.7642C606.669 99.7642 605.255 100.142 604.136 100.899C603.051 101.623 602.508 102.593 602.508 103.81C602.508 104.468 602.689 105.093 603.051 105.685C603.413 106.277 603.939 106.754 604.63 107.116C605.32 107.477 606.143 107.658 607.097 107.658C608.083 107.658 609.054 107.477 610.007 107.116C610.961 106.721 611.734 106.244 612.326 105.685ZM650.377 112H643.765V97.4947C643.765 95.4225 643.403 93.9095 642.68 92.9556C641.956 92.0018 640.953 91.5248 639.67 91.5248C638.782 91.5248 637.878 91.7551 636.957 92.2156C636.069 92.6761 635.263 93.3174 634.539 94.1397C633.816 94.9291 633.289 95.8501 632.96 96.9027V112H626.349V86.147H632.319V90.9328C632.977 89.8145 633.816 88.877 634.835 88.1205C635.855 87.3311 637.022 86.7391 638.338 86.3444C639.687 85.9168 641.101 85.703 642.581 85.703C644.193 85.703 645.509 85.999 646.528 86.5911C647.581 87.1502 648.37 87.9232 648.896 88.9099C649.456 89.8638 649.834 90.9492 650.031 92.1662C650.261 93.3832 650.377 94.6167 650.377 95.8666V112ZM654.349 104.353C654.349 102.675 654.809 101.211 655.73 99.9616C656.684 98.6788 658 97.6921 659.677 97.0013C661.355 96.3106 663.279 95.9652 665.45 95.9652C666.535 95.9652 667.637 96.0475 668.756 96.2119C669.874 96.3764 670.844 96.6395 671.667 97.0013V95.6199C671.667 93.9753 671.173 92.7089 670.186 91.8209C669.233 90.9328 667.802 90.4887 665.894 90.4887C664.48 90.4887 663.131 90.7354 661.848 91.2288C660.566 91.7222 659.217 92.4458 657.803 93.3997L655.681 89.058C657.392 87.9396 659.135 87.1009 660.911 86.5417C662.72 85.9826 664.611 85.703 666.585 85.703C670.269 85.703 673.13 86.624 675.17 88.4659C677.242 90.3078 678.278 92.9392 678.278 96.3599V104.599C678.278 105.29 678.393 105.783 678.623 106.079C678.886 106.375 679.297 106.556 679.857 106.622V112C679.265 112.099 678.722 112.181 678.228 112.247C677.768 112.312 677.373 112.345 677.044 112.345C675.729 112.345 674.726 112.049 674.035 111.457C673.377 110.865 672.966 110.142 672.801 109.286L672.653 107.954C671.535 109.402 670.137 110.52 668.46 111.309C666.782 112.099 665.072 112.493 663.328 112.493C661.618 112.493 660.072 112.148 658.691 111.457C657.342 110.734 656.273 109.763 655.484 108.546C654.727 107.296 654.349 105.899 654.349 104.353ZM670.433 105.685C670.795 105.29 671.091 104.895 671.321 104.501C671.551 104.106 671.667 103.744 671.667 103.415V100.8C670.877 100.471 670.022 100.225 669.101 100.06C668.18 99.8629 667.308 99.7642 666.486 99.7642C664.776 99.7642 663.361 100.142 662.243 100.899C661.158 101.623 660.615 102.593 660.615 103.81C660.615 104.468 660.796 105.093 661.158 105.685C661.519 106.277 662.046 106.754 662.736 107.116C663.427 107.477 664.249 107.658 665.203 107.658C666.19 107.658 667.16 107.477 668.114 107.116C669.068 106.721 669.841 106.244 670.433 105.685ZM694.57 112.148C692.86 112.148 691.281 111.819 689.834 111.161C688.419 110.471 687.186 109.517 686.133 108.3C685.114 107.083 684.324 105.685 683.765 104.106C683.206 102.527 682.926 100.85 682.926 99.0735C682.926 97.1987 683.222 95.4554 683.814 93.8437C684.406 92.232 685.229 90.8177 686.281 89.6007C687.367 88.3508 688.633 87.3969 690.08 86.7391C691.56 86.0483 693.189 85.703 694.965 85.703C696.971 85.703 698.731 86.1635 700.244 87.0844C701.757 87.9725 703.007 89.1731 703.994 90.6861V86.147H709.766V110.767C709.766 113.332 709.141 115.519 707.891 117.328C706.674 119.17 704.98 120.568 702.809 121.522C700.639 122.509 698.172 123.002 695.409 123.002C692.613 123.002 690.245 122.525 688.304 121.572C686.364 120.651 684.703 119.335 683.321 117.625L686.923 114.122C687.909 115.339 689.143 116.292 690.623 116.983C692.136 117.674 693.731 118.019 695.409 118.019C696.823 118.019 698.106 117.756 699.257 117.23C700.441 116.736 701.379 115.947 702.069 114.862C702.793 113.809 703.155 112.444 703.155 110.767V107.51C702.3 108.99 701.083 110.142 699.504 110.964C697.958 111.753 696.313 112.148 694.57 112.148ZM696.79 106.869C697.514 106.869 698.205 106.754 698.862 106.524C699.52 106.293 700.129 105.981 700.688 105.586C701.247 105.191 701.74 104.731 702.168 104.205C702.596 103.645 702.925 103.086 703.155 102.527V96.3599C702.76 95.3403 702.201 94.4522 701.477 93.6957C700.787 92.9392 699.997 92.3636 699.109 91.9689C698.254 91.5413 697.349 91.3275 696.396 91.3275C695.376 91.3275 694.455 91.5413 693.633 91.9689C692.81 92.3965 692.103 93.005 691.511 93.7944C690.919 94.5509 690.459 95.4061 690.13 96.3599C689.834 97.2809 689.686 98.2512 689.686 99.2709C689.686 100.323 689.867 101.31 690.228 102.231C690.59 103.152 691.084 103.958 691.708 104.649C692.366 105.339 693.123 105.882 693.978 106.277C694.866 106.672 695.804 106.869 696.79 106.869ZM727.715 112.493C725.642 112.493 723.768 112.148 722.09 111.457C720.413 110.734 718.982 109.763 717.798 108.546C716.614 107.296 715.693 105.882 715.035 104.303C714.41 102.692 714.097 100.998 714.097 99.2215C714.097 96.7546 714.64 94.5015 715.726 92.4623C716.844 90.423 718.423 88.7948 720.462 87.5778C722.534 86.3279 724.968 85.703 727.764 85.703C730.593 85.703 733.01 86.3279 735.017 87.5778C737.023 88.7948 738.552 90.423 739.605 92.4623C740.69 94.4687 741.233 96.6395 741.233 98.9748C741.233 99.3695 741.217 99.7807 741.184 100.208C741.151 100.603 741.118 100.932 741.085 101.195H721.103C721.235 102.511 721.613 103.662 722.238 104.649C722.896 105.635 723.718 106.392 724.705 106.918C725.725 107.412 726.81 107.658 727.961 107.658C729.277 107.658 730.51 107.346 731.662 106.721C732.846 106.063 733.652 105.208 734.079 104.155L739.753 105.734C739.128 107.05 738.224 108.217 737.039 109.237C735.888 110.257 734.523 111.063 732.944 111.655C731.366 112.214 729.622 112.493 727.715 112.493ZM720.955 97.0013H734.474C734.342 95.6857 733.964 94.5509 733.339 93.597C732.747 92.6103 731.958 91.8538 730.971 91.3275C729.984 90.7683 728.882 90.4887 727.665 90.4887C726.481 90.4887 725.396 90.7683 724.409 91.3275C723.455 91.8538 722.666 92.6103 722.041 93.597C721.449 94.5509 721.087 95.6857 720.955 97.0013ZM785.422 112H778.81V97.4947C778.81 95.4554 778.449 93.9588 777.725 93.005C777.034 92.0182 776.064 91.5248 774.814 91.5248C773.531 91.5248 772.298 92.0347 771.114 93.0543C769.962 94.0411 769.14 95.3403 768.647 96.952V112H762.036V97.4947C762.036 95.4225 761.674 93.9095 760.95 92.9556C760.259 92.0018 759.289 91.5248 758.039 91.5248C756.756 91.5248 755.523 92.0182 754.339 93.005C753.188 93.9917 752.365 95.291 751.872 96.9027V112H745.261V86.147H751.231V90.9328C752.217 89.2553 753.533 87.9725 755.178 87.0844C756.822 86.1635 758.713 85.703 760.851 85.703C762.989 85.703 764.65 86.2293 765.835 87.2818C767.052 88.3343 767.825 89.6336 768.153 91.1795C769.206 89.4033 770.538 88.0548 772.15 87.1338C773.794 86.1799 775.636 85.703 777.676 85.703C779.287 85.703 780.587 85.999 781.573 86.5911C782.593 87.1502 783.382 87.9232 783.942 88.9099C784.501 89.8638 784.879 90.9492 785.076 92.1662C785.307 93.3832 785.422 94.6167 785.422 95.8666V112ZM803.167 112.493C801.094 112.493 799.22 112.148 797.542 111.457C795.865 110.734 794.434 109.763 793.25 108.546C792.066 107.296 791.145 105.882 790.487 104.303C789.862 102.692 789.549 100.998 789.549 99.2215C789.549 96.7546 790.092 94.5015 791.178 92.4623C792.296 90.423 793.875 88.7948 795.914 87.5778C797.986 86.3279 800.42 85.703 803.216 85.703C806.045 85.703 808.462 86.3279 810.469 87.5778C812.475 88.7948 814.005 90.423 815.057 92.4623C816.142 94.4687 816.685 96.6395 816.685 98.9748C816.685 99.3695 816.669 99.7807 816.636 100.208C816.603 100.603 816.57 100.932 816.537 101.195H796.555C796.687 102.511 797.065 103.662 797.69 104.649C798.348 105.635 799.17 106.392 800.157 106.918C801.177 107.412 802.262 107.658 803.413 107.658C804.729 107.658 805.962 107.346 807.114 106.721C808.298 106.063 809.104 105.208 809.531 104.155L815.205 105.734C814.58 107.05 813.676 108.217 812.492 109.237C811.34 110.257 809.975 111.063 808.396 111.655C806.818 112.214 805.074 112.493 803.167 112.493ZM796.407 97.0013H809.926C809.794 95.6857 809.416 94.5509 808.791 93.597C808.199 92.6103 807.41 91.8538 806.423 91.3275C805.436 90.7683 804.334 90.4887 803.117 90.4887C801.933 90.4887 800.848 90.7683 799.861 91.3275C798.907 91.8538 798.118 92.6103 797.493 93.597C796.901 94.5509 796.539 95.6857 796.407 97.0013ZM844.74 112H838.129V97.4947C838.129 95.4225 837.767 93.9095 837.044 92.9556C836.32 92.0018 835.317 91.5248 834.034 91.5248C833.146 91.5248 832.241 91.7551 831.32 92.2156C830.432 92.6761 829.626 93.3174 828.903 94.1397C828.179 94.9291 827.653 95.8501 827.324 96.9027V112H820.713V86.147H826.683V90.9328C827.34 89.8145 828.179 88.877 829.199 88.1205C830.219 87.3311 831.386 86.7391 832.702 86.3444C834.05 85.9168 835.465 85.703 836.945 85.703C838.557 85.703 839.872 85.999 840.892 86.5911C841.944 87.1502 842.734 87.9232 843.26 88.9099C843.819 89.8638 844.198 90.9492 844.395 92.1662C844.625 93.3832 844.74 94.6167 844.74 95.8666V112ZM865.836 110.668C865.277 110.898 864.603 111.161 863.814 111.457C863.024 111.753 862.169 111.984 861.248 112.148C860.36 112.345 859.455 112.444 858.534 112.444C857.317 112.444 856.199 112.23 855.179 111.803C854.16 111.375 853.338 110.701 852.713 109.78C852.121 108.826 851.824 107.592 851.824 106.079V91.2288H848.42V86.147H851.824V77.7596H858.436V86.147H863.863V91.2288H858.436V103.859C858.469 104.747 858.715 105.389 859.176 105.783C859.636 106.178 860.212 106.375 860.903 106.375C861.593 106.375 862.268 106.26 862.925 106.03C863.583 105.8 864.11 105.603 864.504 105.438L865.836 110.668ZM881.774 112V76.9702H888.582V112H881.774ZM919.277 112H912.666V97.4947C912.666 95.4225 912.304 93.9095 911.58 92.9556C910.857 92.0018 909.853 91.5248 908.571 91.5248C907.682 91.5248 906.778 91.7551 905.857 92.2156C904.969 92.6761 904.163 93.3174 903.439 94.1397C902.716 94.9291 902.19 95.8501 901.861 96.9027V112H895.249V86.147H901.219V90.9328C901.877 89.8145 902.716 88.877 903.735 88.1205C904.755 87.3311 905.923 86.7391 907.238 86.3444C908.587 85.9168 910.001 85.703 911.481 85.703C913.093 85.703 914.409 85.999 915.429 86.5911C916.481 87.1502 917.27 87.9232 917.797 88.9099C918.356 89.8638 918.734 90.9492 918.931 92.1662C919.162 93.3832 919.277 94.6167 919.277 95.8666V112ZM934.548 112.493C932.344 112.493 930.239 112.132 928.232 111.408C926.226 110.684 924.499 109.615 923.052 108.201L925.42 103.909C926.966 105.159 928.479 106.079 929.959 106.672C931.472 107.264 932.92 107.56 934.301 107.56C935.584 107.56 936.603 107.329 937.36 106.869C938.149 106.408 938.544 105.718 938.544 104.797C938.544 104.172 938.33 103.695 937.903 103.366C937.475 103.004 936.85 102.692 936.028 102.428C935.238 102.165 934.268 101.869 933.117 101.54C931.209 100.915 929.614 100.307 928.331 99.7149C927.048 99.1228 926.078 98.3828 925.42 97.4947C924.795 96.5737 924.483 95.4061 924.483 93.9917C924.483 92.2813 924.91 90.8177 925.766 89.6007C926.654 88.3508 927.871 87.3805 929.417 86.6897C930.995 85.999 932.837 85.6536 934.942 85.6536C936.784 85.6536 938.528 85.9497 940.172 86.5417C941.817 87.1009 943.313 88.0219 944.662 89.3046L941.998 93.4983C940.682 92.4787 939.432 91.7386 938.248 91.2781C937.064 90.7848 935.863 90.5381 934.646 90.5381C933.956 90.5381 933.298 90.6203 932.673 90.7848C932.081 90.9492 931.587 91.2288 931.193 91.6235C930.831 91.9853 930.65 92.5116 930.65 93.2023C930.65 93.8273 930.814 94.3206 931.143 94.6825C931.505 95.0114 932.031 95.3074 932.722 95.5705C933.446 95.8337 934.317 96.1297 935.337 96.4586C937.409 97.0507 939.153 97.6592 940.567 98.2841C942.014 98.9091 943.1 99.682 943.823 100.603C944.547 101.491 944.909 102.725 944.909 104.303C944.909 106.869 943.971 108.875 942.096 110.323C940.221 111.77 937.705 112.493 934.548 112.493ZM964.753 110.668C964.194 110.898 963.519 111.161 962.73 111.457C961.941 111.753 961.085 111.984 960.164 112.148C959.276 112.345 958.372 112.444 957.451 112.444C956.234 112.444 955.115 112.23 954.096 111.803C953.076 111.375 952.254 110.701 951.629 109.78C951.037 108.826 950.741 107.592 950.741 106.079V91.2288H947.337V86.147H950.741V77.7596H957.352V86.147H962.779V91.2288H957.352V103.859C957.385 104.747 957.632 105.389 958.092 105.783C958.553 106.178 959.128 106.375 959.819 106.375C960.51 106.375 961.184 106.26 961.842 106.03C962.5 105.8 963.026 105.603 963.421 105.438L964.753 110.668ZM968.196 112V86.147H974.807V112H968.196ZM968.196 82.5454V75.9835H974.807V82.5454H968.196ZM996.263 110.668C995.704 110.898 995.03 111.161 994.241 111.457C993.451 111.753 992.596 111.984 991.675 112.148C990.787 112.345 989.882 112.444 988.961 112.444C987.744 112.444 986.626 112.23 985.606 111.803C984.587 111.375 983.764 110.701 983.14 109.78C982.547 108.826 982.251 107.592 982.251 106.079V91.2288H978.847V86.147H982.251V77.7596H988.863V86.147H994.29V91.2288H988.863V103.859C988.896 104.747 989.142 105.389 989.603 105.783C990.063 106.178 990.639 106.375 991.33 106.375C992.02 106.375 992.695 106.26 993.352 106.03C994.01 105.8 994.537 105.603 994.931 105.438L996.263 110.668ZM999.46 102.33V86.147H1006.07V100.899C1006.07 102.873 1006.43 104.369 1007.16 105.389C1007.88 106.375 1008.95 106.869 1010.36 106.869C1011.22 106.869 1012.06 106.704 1012.88 106.375C1013.73 106.014 1014.51 105.487 1015.2 104.797C1015.92 104.106 1016.53 103.234 1017.02 102.182V86.147H1023.64V104.599C1023.64 105.29 1023.75 105.783 1023.98 106.079C1024.24 106.375 1024.66 106.556 1025.21 106.622V112C1024.56 112.099 1024 112.164 1023.54 112.197C1023.11 112.263 1022.71 112.296 1022.35 112.296C1021.17 112.296 1020.2 112.033 1019.44 111.507C1018.72 110.947 1018.29 110.191 1018.16 109.237L1018.01 107.165C1016.86 108.908 1015.38 110.24 1013.57 111.161C1011.76 112.049 1009.77 112.493 1007.6 112.493C1004.94 112.493 1002.91 111.638 1001.53 109.928C1000.15 108.185 999.46 105.652 999.46 102.33ZM1045.6 110.668C1045.04 110.898 1044.37 111.161 1043.58 111.457C1042.79 111.753 1041.93 111.984 1041.01 112.148C1040.12 112.345 1039.22 112.444 1038.3 112.444C1037.08 112.444 1035.96 112.23 1034.94 111.803C1033.92 111.375 1033.1 110.701 1032.48 109.78C1031.89 108.826 1031.59 107.592 1031.59 106.079V91.2288H1028.18V86.147H1031.59V77.7596H1038.2V86.147H1043.63V91.2288H1038.2V103.859C1038.23 104.747 1038.48 105.389 1038.94 105.783C1039.4 106.178 1039.98 106.375 1040.67 106.375C1041.36 106.375 1042.03 106.26 1042.69 106.03C1043.35 105.8 1043.87 105.603 1044.27 105.438L1045.6 110.668ZM1060.74 112.493C1058.67 112.493 1056.8 112.148 1055.12 111.457C1053.44 110.734 1052.01 109.763 1050.83 108.546C1049.64 107.296 1048.72 105.882 1048.06 104.303C1047.44 102.692 1047.13 100.998 1047.13 99.2215C1047.13 96.7546 1047.67 94.5015 1048.76 92.4623C1049.87 90.423 1051.45 88.7948 1053.49 87.5778C1055.56 86.3279 1058 85.703 1060.79 85.703C1063.62 85.703 1066.04 86.3279 1068.05 87.5778C1070.05 88.7948 1071.58 90.423 1072.63 92.4623C1073.72 94.4687 1074.26 96.6395 1074.26 98.9748C1074.26 99.3695 1074.25 99.7807 1074.21 100.208C1074.18 100.603 1074.15 100.932 1074.11 101.195H1054.13C1054.26 102.511 1054.64 103.662 1055.27 104.649C1055.93 105.635 1056.75 106.392 1057.73 106.918C1058.75 107.412 1059.84 107.658 1060.99 107.658C1062.31 107.658 1063.54 107.346 1064.69 106.721C1065.88 106.063 1066.68 105.208 1067.11 104.155L1072.78 105.734C1072.16 107.05 1071.25 108.217 1070.07 109.237C1068.92 110.257 1067.55 111.063 1065.97 111.655C1064.4 112.214 1062.65 112.493 1060.74 112.493ZM1053.99 97.0013H1067.5C1067.37 95.6857 1066.99 94.5509 1066.37 93.597C1065.78 92.6103 1064.99 91.8538 1064 91.3275C1063.01 90.7683 1061.91 90.4887 1060.7 90.4887C1059.51 90.4887 1058.43 90.7683 1057.44 91.3275C1056.48 91.8538 1055.7 92.6103 1055.07 93.597C1054.48 94.5509 1054.12 95.6857 1053.99 97.0013Z" fill="white"/>
<defs>
<clipPath id="clip0_2864_5849">
<rect x="102.23" y="10.8853" width="102.23" height="102.23" rx="51.115" transform="rotate(90 102.23 10.8853)" fill="white"/>
</clipPath>
</defs>
</svg>
