<svg width="929" height="559" viewBox="0 0 929 559" fill="none" xmlns="http://www.w3.org/2000/svg">
<g opacity="0.2">
<g clip-path="url(#clip0_2301_1333)">
<path d="M48.2486 465.625L2.30108 509.244H66.7668L46.827 490.348L2.15594 532.817H66.8781L46.827 513.038L-1.25781 559" stroke="#D5D4FF" stroke-width="1.1805" stroke-miterlimit="3"/>
<path d="M97.5562 372.321L51.6087 415.939H116.074L96.1347 397.044L51.4636 439.512H116.186L96.1347 419.733L48.0498 465.695" stroke="#D5D4FF" stroke-width="1.1805" stroke-miterlimit="3"/>
<path d="M146.864 279.016L100.916 322.634H165.382L145.442 303.739L100.771 346.207H165.493L145.442 326.429L97.3574 372.391" stroke="#D5D4FF" stroke-width="1.1805" stroke-miterlimit="3"/>
<path d="M119.074 465.625L73.1263 509.243H137.592L117.652 490.348L72.9811 532.816H137.703L117.652 513.038L69.5674 559" stroke="#D5D4FF" stroke-width="1.1805" stroke-miterlimit="3"/>
<path d="M168.379 372.321L122.432 415.939H186.898L166.958 397.044L122.287 439.512H187.009L166.958 419.733L118.873 465.695" stroke="#D5D4FF" stroke-width="1.1805" stroke-miterlimit="3"/>
<path d="M217.69 279.016L171.742 322.634H236.208L216.268 303.739L171.597 346.207H236.32L216.268 326.429L168.184 372.391" stroke="#D5D4FF" stroke-width="1.1805" stroke-miterlimit="3"/>
<path d="M195.277 186.609L149.329 230.227H213.795L193.855 211.332L149.184 253.8H213.906L193.855 234.021L145.771 279.983" stroke="#D5D4FF" stroke-width="1.1805" stroke-miterlimit="3"/>
<path d="M187.21 465.625L141.262 509.243H205.728L185.788 490.348L141.117 532.816H205.839L185.788 513.038L137.703 559" stroke="#D5D4FF" stroke-width="1.1805" stroke-miterlimit="3"/>
<path d="M244.586 93.3047L198.639 136.923H263.105L243.165 118.028L198.494 160.496H263.216L243.165 140.717L195.08 186.679" stroke="#D5D4FF" stroke-width="1.1805" stroke-miterlimit="3"/>
<path d="M236.517 372.321L190.57 415.939H255.035L235.096 397.044L190.424 439.512H255.147L235.096 419.733L187.011 465.695" stroke="#D5D4FF" stroke-width="1.1805" stroke-miterlimit="3"/>
<path d="M293.895 0L247.948 43.6183H312.413L292.474 24.7229L247.802 67.1913H312.525L292.474 47.4125L244.389 93.3746" stroke="#D5D4FF" stroke-width="1.1805" stroke-miterlimit="3"/>
<path d="M285.827 279.016L239.879 322.634H304.345L284.405 303.739L239.734 346.207H304.456L284.405 326.429L236.32 372.391" stroke="#D5D4FF" stroke-width="1.1805" stroke-miterlimit="3"/>
<path d="M266.103 186.609L220.156 230.227H284.621L264.682 211.332L220.01 253.8H284.733L264.682 234.021L216.597 279.983" stroke="#D5D4FF" stroke-width="1.1805" stroke-miterlimit="3"/>
<path d="M255.344 465.625L209.397 509.244H273.862L253.923 490.348L209.252 532.817H273.974L253.923 513.038L205.838 559" stroke="#D5D4FF" stroke-width="1.1805" stroke-miterlimit="3"/>
<path d="M315.412 93.3047L269.464 136.923H333.93L313.99 118.028L269.319 160.496H334.041L313.99 140.717L265.905 186.679" stroke="#D5D4FF" stroke-width="1.1805" stroke-miterlimit="3"/>
<path d="M304.654 372.321L258.706 415.939H323.172L303.232 397.044L258.561 439.512H323.283L303.232 419.733L255.147 465.695" stroke="#D5D4FF" stroke-width="1.1805" stroke-miterlimit="3"/>
<path d="M364.721 0L318.774 43.6183H383.239L363.3 24.7229L318.629 67.1913H383.351L363.3 47.4125L315.215 93.3746" stroke="#D5D4FF" stroke-width="1.1805" stroke-miterlimit="3"/>
<path d="M353.961 279.016L308.014 322.634H372.48L352.54 303.739L307.869 346.207H372.591L352.54 326.429L304.455 372.391" stroke="#D5D4FF" stroke-width="1.1805" stroke-miterlimit="3"/>
<path d="M334.238 186.609L288.29 230.227H352.756L332.816 211.332L288.145 253.8H352.867L332.816 234.021L284.731 279.983" stroke="#D5D4FF" stroke-width="1.1805" stroke-miterlimit="3"/>
<path d="M323.48 465.625L277.533 509.244H341.998L322.058 490.348L277.387 532.817H342.11L322.058 513.038L273.974 559" stroke="#D5D4FF" stroke-width="1.1805" stroke-miterlimit="3"/>
<path d="M383.546 93.3047L337.599 136.923H402.065L382.125 118.028L337.454 160.496H402.176L382.125 140.717L334.04 186.679" stroke="#D5D4FF" stroke-width="1.1805" stroke-miterlimit="3"/>
<path d="M372.789 372.321L326.841 415.939H391.307L371.367 397.044L326.696 439.512H391.418L371.367 419.733L323.282 465.695" stroke="#D5D4FF" stroke-width="1.1805" stroke-miterlimit="3"/>
<path d="M432.856 0L386.909 43.6183H451.374L431.434 24.7229L386.763 67.1913H451.486L431.434 47.4125L383.35 93.3746" stroke="#D5D4FF" stroke-width="1.1805" stroke-miterlimit="3"/>
<path d="M422.099 279.016L376.152 322.634H440.617L420.678 303.739L376.007 346.207H440.729L420.678 326.429L372.593 372.391" stroke="#D5D4FF" stroke-width="1.1805" stroke-miterlimit="3"/>
<path d="M402.374 186.609L356.426 230.228H420.892L400.952 211.332L356.281 253.801H421.003L400.952 234.022L352.867 279.984" stroke="#D5D4FF" stroke-width="1.1805" stroke-miterlimit="3"/>
<path d="M391.616 465.625L345.668 509.244H410.134L390.194 490.348L345.523 532.817H410.245L390.194 513.038L342.109 559" stroke="#D5D4FF" stroke-width="1.1805" stroke-miterlimit="3"/>
<path d="M451.685 93.3047L405.738 136.923H470.203L450.264 118.028L405.592 160.496H470.315L450.264 140.717L402.179 186.679" stroke="#D5D4FF" stroke-width="1.1805" stroke-miterlimit="3"/>
<path d="M440.926 372.321L394.979 415.939H459.445L439.505 397.044L394.834 439.512H459.556L439.505 419.733L391.42 465.695" stroke="#D5D4FF" stroke-width="1.1805" stroke-miterlimit="3"/>
<path d="M500.993 0L455.045 43.6183H519.511L499.571 24.7229L454.9 67.1913H519.622L499.571 47.4125L451.486 93.3746" stroke="#D5D4FF" stroke-width="1.1805" stroke-miterlimit="3"/>
<path d="M490.232 279.016L444.284 322.634H508.75L488.81 303.739L444.139 346.207H508.862L488.81 326.429L440.726 372.391" stroke="#D5D4FF" stroke-width="1.1805" stroke-miterlimit="3"/>
<path d="M694.642 279.016L648.695 322.634H713.16L693.221 303.739L648.549 346.207H713.272L693.221 326.429L645.136 372.391" stroke="#D5D4FF" stroke-width="1.1805" stroke-miterlimit="3"/>
<path d="M470.511 186.609L424.564 230.227H489.029L469.09 211.332L424.419 253.8H489.141L469.09 234.021L421.005 279.983" stroke="#D5D4FF" stroke-width="1.1805" stroke-miterlimit="3"/>
<path d="M459.753 465.625L413.806 509.243H478.272L458.332 490.348L413.661 532.816H478.383L458.332 513.038L410.247 559" stroke="#D5D4FF" stroke-width="1.1805" stroke-miterlimit="3"/>
<path d="M519.82 93.3047L473.872 136.923H538.338L518.398 118.028L473.727 160.496H538.449L518.398 140.717L470.313 186.679" stroke="#D5D4FF" stroke-width="1.1805" stroke-miterlimit="3"/>
<path d="M509.062 372.321L463.115 415.939H527.58L507.641 397.044L462.969 439.512H527.692L507.641 419.733L459.556 465.695" stroke="#D5D4FF" stroke-width="1.1805" stroke-miterlimit="3"/>
<path d="M713.469 372.321L667.522 415.939H731.987L712.048 397.044L667.377 439.512H732.099L712.048 419.733L663.963 465.695" stroke="#D5D4FF" stroke-width="1.1805" stroke-miterlimit="3"/>
<path d="M569.128 0L523.18 43.6183H587.646L567.706 24.7229L523.035 67.1913H587.757L567.706 47.4125L519.621 93.3746" stroke="#D5D4FF" stroke-width="1.1805" stroke-miterlimit="3"/>
<path d="M558.371 279.016L512.423 322.634H576.889L556.949 303.739L512.278 346.207H577L556.949 326.429L508.864 372.391" stroke="#D5D4FF" stroke-width="1.1805" stroke-miterlimit="3"/>
<path d="M762.778 279.016L716.83 322.634H781.296L761.356 303.739L716.685 346.207H781.407L761.356 326.429L713.271 372.391" stroke="#D5D4FF" stroke-width="1.1805" stroke-miterlimit="3"/>
<path d="M538.646 186.609L492.699 230.227H557.164L537.224 211.332L492.553 253.8H557.276L537.224 234.021L489.14 279.983" stroke="#D5D4FF" stroke-width="1.1805" stroke-miterlimit="3"/>
<path d="M527.889 465.625L481.942 509.244H546.407L526.468 490.348L481.797 532.817H546.519L526.468 513.038L478.383 559" stroke="#D5D4FF" stroke-width="1.1805" stroke-miterlimit="3"/>
<path d="M587.956 93.3047L542.008 136.923H606.474L586.534 118.028L541.863 160.496H606.585L586.534 140.717L538.449 186.679" stroke="#D5D4FF" stroke-width="1.1805" stroke-miterlimit="3"/>
<path d="M577.198 372.321L531.25 415.939H595.716L575.776 397.044L531.105 439.512H595.827L575.776 419.733L527.691 465.695" stroke="#D5D4FF" stroke-width="1.1805" stroke-miterlimit="3"/>
<path d="M637.265 0L591.318 43.6183H655.783L635.844 24.7229L591.173 67.1913H655.895L635.844 47.4125L587.759 93.3746" stroke="#D5D4FF" stroke-width="1.1805" stroke-miterlimit="3"/>
<path d="M705.506 0L659.559 43.6183H724.025L704.085 24.7229L659.414 67.1913H724.136L704.085 47.4125L656 93.3746" stroke="#D5D4FF" stroke-width="1.1805" stroke-miterlimit="3"/>
<path d="M773.748 0L727.8 43.6183H792.266L772.326 24.7229L727.655 67.1913H792.377L772.326 47.4125L724.241 93.3746" stroke="#D5D4FF" stroke-width="1.1805" stroke-miterlimit="3"/>
<path d="M841.989 0L796.041 43.6183H860.507L840.567 24.7229L795.896 67.1913H860.618L840.567 47.4125L792.482 93.3746" stroke="#D5D4FF" stroke-width="1.1805" stroke-miterlimit="3"/>
<path d="M910.23 0L864.283 43.6183H928.748L908.808 24.7229L864.137 67.1913H928.86L908.808 47.4125L860.724 93.3746" stroke="#D5D4FF" stroke-width="1.1805" stroke-miterlimit="3"/>
<path d="M626.506 279.016L580.559 322.634H645.025L625.085 303.739L580.414 346.207H645.136L625.085 326.429L577 372.391" stroke="#D5D4FF" stroke-width="1.1805" stroke-miterlimit="3"/>
<path d="M606.783 186.609L560.835 230.228H625.301L605.361 211.332L560.69 253.801H625.412L605.361 234.022L557.276 279.984" stroke="#D5D4FF" stroke-width="1.1805" stroke-miterlimit="3"/>
<path d="M596.025 465.625L550.077 509.244H614.543L594.603 490.348L549.932 532.817H614.654L594.603 513.038L546.519 559" stroke="#D5D4FF" stroke-width="1.1805" stroke-miterlimit="3"/>
<path d="M674.919 186.608L628.971 230.227H693.437L673.497 211.331L628.826 253.8H693.548L673.497 234.021L625.412 279.983" stroke="#D5D4FF" stroke-width="1.1805" stroke-miterlimit="3"/>
<path d="M743.054 186.608L697.107 230.227H761.572L741.633 211.331L696.962 253.8H761.684L741.633 234.021L693.548 279.983" stroke="#D5D4FF" stroke-width="1.1805" stroke-miterlimit="3"/>
<path d="M811.19 186.608L765.242 230.227H829.708L809.768 211.331L765.097 253.8H829.82L809.768 234.021L761.684 279.983" stroke="#D5D4FF" stroke-width="1.1805" stroke-miterlimit="3"/>
<path d="M664.161 465.625L618.213 509.244H682.679L662.739 490.348L618.068 532.817H682.79L662.739 513.038L614.654 559" stroke="#D5D4FF" stroke-width="1.1805" stroke-miterlimit="3"/>
<path d="M656.09 93.3047L610.143 136.923H674.609L654.669 118.028L609.998 160.496H674.72L654.669 140.717L606.584 186.679" stroke="#D5D4FF" stroke-width="1.1805" stroke-miterlimit="3"/>
<path d="M724.506 93.3047L678.559 136.923H743.025L723.085 118.028L678.414 160.496H743.136L723.085 140.717L675 186.679" stroke="#D5D4FF" stroke-width="1.1805" stroke-miterlimit="3"/>
<path d="M792.922 93.3047L746.975 136.923H811.441L791.501 118.028L746.83 160.496H811.552L791.501 140.717L743.416 186.679" stroke="#D5D4FF" stroke-width="1.1805" stroke-miterlimit="3"/>
<path d="M861.338 93.3047L815.391 136.923H879.857L859.917 118.028L815.246 160.496H879.968L859.917 140.717L811.832 186.679" stroke="#D5D4FF" stroke-width="1.1805" stroke-miterlimit="3"/>
<path d="M645.334 372.321L599.386 415.939H663.852L643.912 397.044L599.241 439.512H663.963L643.912 419.733L595.827 465.695" stroke="#D5D4FF" stroke-width="1.1805" stroke-miterlimit="3"/>
</g>
<rect x="0.0286373" y="0.0286373" width="928.943" height="558.943" rx="0.503674" stroke="black" stroke-opacity="0.1" stroke-width="0.0572746"/>
</g>
<defs>
<clipPath id="clip0_2301_1333">
<rect width="929" height="559" rx="0.532312" fill="white"/>
</clipPath>
</defs>
</svg>
